<svg xmlns="http://www.w3.org/2000/svg" viewBox="0 0 400 400" width="400" height="400">
  <rect width="400" height="400" fill="#e8f9f7" rx="24"></rect>
  <ellipse cx="202" cy="348" rx="62" ry="10" fill="#b0d8d4" opacity="0.6"></ellipse>
  <rect x="140" y="120" width="120" height="220" rx="24" fill="#000938"></rect>
  <rect x="148" y="88" width="104" height="44" rx="16" fill="#0a1560"></rect>
  <rect x="156" y="62" width="88" height="36" rx="14" fill="#00D9BF"></rect>
  <rect x="168" y="52" width="64" height="20" rx="10" fill="#00bfa8"></rect>
  <rect x="168" y="56" width="20" height="8" rx="4" fill="white" opacity="0.25"></rect>
  <rect x="140" y="120" width="120" height="36" rx="0" fill="#00D9BF" opacity="0.15"></rect>
  <rect x="140" y="120" width="120" height="6" rx="0" fill="#00D9BF" opacity="0.6"></rect>
  <rect x="140" y="304" width="120" height="6" rx="0" fill="#00D9BF" opacity="0.6"></rect>
  <rect x="140" y="310" width="120" height="30" rx="0" fill="#00D9BF" opacity="0.12"></rect>
  <text x="200" y="215" text-anchor="middle" font-family="'Poppins', 'Helvetica Neue', sans-serif" font-weight="800" font-size="22" fill="#00D9BF" letter-spacing="-0.5">Syllabi</text>
  <text x="200" y="242" text-anchor="middle" font-family="'Poppins', 'Helvetica Neue', sans-serif" font-weight="500" font-size="10" fill="rgba(0,217,191,0.5)" letter-spacing="2">LEARN SMARTER</text>
  <rect x="152" y="132" width="12" height="170" rx="6" fill="white" opacity="0.07"></rect>
  <rect x="170" y="138" width="5" height="60" rx="2.5" fill="white" opacity="0.05"></rect>
  <rect x="148" y="328" width="104" height="12" rx="6" fill="#0a1560"></rect>
  <circle cx="200" cy="270" r="18" fill="none" stroke="rgba(0,217,191,0.2)" stroke-width="1.5"></circle>
  <circle cx="200" cy="270" r="10" fill="none" stroke="rgba(0,217,191,0.15)" stroke-width="1.5"></circle>
</svg>
