<svg xmlns="http://www.w3.org/2000/svg" viewBox="0 0 400 400" width="400" height="400">
  <rect width="400" height="400" fill="#f0f2f8" rx="24"></rect>
  <g opacity="0.35">
    <path d="M152 108 Q148 98 152 88 Q156 78 152 68" fill="none" stroke="#00D9BF" stroke-width="3" stroke-linecap="round"></path>
    <path d="M172 112 Q168 100 172 88 Q176 76 172 64" fill="none" stroke="#00D9BF" stroke-width="3" stroke-linecap="round"></path>
    <path d="M192 108 Q188 97 192 86 Q196 75 192 64" fill="none" stroke="#00D9BF" stroke-width="3" stroke-linecap="round"></path>
  </g>
  <rect x="90" y="130" width="200" height="170" rx="12" ry="12" fill="#000938"></rect>
  <ellipse cx="190" cy="300" rx="100" ry="14" fill="#000830"></ellipse>
  <rect x="86" y="126" width="208" height="22" rx="11" fill="#0a1560"></rect>
  <path d="M290 168 Q340 168 340 210 Q340 252 290 252" fill="none" stroke="#0a1560" stroke-width="22" stroke-linecap="round"></path>
  <path d="M290 168 Q332 168 332 210 Q332 252 290 252" fill="none" stroke="#1a2a80" stroke-width="10" stroke-linecap="round"></path>
  <rect x="90" y="218" width="200" height="28" fill="#00D9BF" opacity="0.9"></rect>
  <text x="190" y="195" text-anchor="middle" font-family="'Poppins', 'Helvetica Neue', sans-serif" font-weight="800" font-size="26" fill="#00D9BF" letter-spacing="-0.5">Syllabi</text>
  <circle cx="155" cy="248" r="4" fill="#000938"></circle>
  <circle cx="170" cy="248" r="4" fill="#000938"></circle>
  <circle cx="185" cy="248" r="4" fill="#000938"></circle>
  <circle cx="200" cy="248" r="4" fill="#000938"></circle>
  <circle cx="215" cy="248" r="4" fill="#000938"></circle>
  <circle cx="230" cy="248" r="4" fill="#000938"></circle>
  <rect x="106" y="136" width="18" height="120" rx="9" fill="white" opacity="0.07"></rect>
  <ellipse cx="190" cy="318" rx="118" ry="14" fill="#d8dce8"></ellipse>
  <ellipse cx="190" cy="316" rx="110" ry="10" fill="#e4e7f0"></ellipse>
</svg>
